<svg xmlns="http://www.w3.org/2000/svg" xmlns:xlink="http://www.w3.org/1999/xlink" width="500" zoomAndPan="magnify" viewBox="0 0 375 374.999991" height="500" preserveAspectRatio="xMidYMid meet" version="1.0"><defs><g/><clipPath id="4b655c173d"><path d="M 70.996094 70.996094 L 291 70.996094 L 291 201 L 70.996094 201 Z M 70.996094 70.996094 " clip-rule="nonzero"/></clipPath></defs><g clip-path="url(#4b655c173d)"><path fill="#ffffff" d="M 130.667969 200.441406 L 83.941406 200.441406 C 76.820312 200.441406 70.996094 194.617188 70.996094 187.496094 C 70.996094 183.097656 71.253906 178.824219 71.707031 174.554688 C 78.179688 116.300781 127.566406 70.996094 187.496094 70.996094 C 230.734375 70.996094 268.464844 94.554688 288.53125 129.570312 C 293.449219 138.050781 286.910156 148.664062 277.140625 148.664062 C 272.609375 148.664062 268.339844 146.269531 266.074219 142.320312 C 250.40625 115.136719 221.089844 96.886719 187.496094 96.886719 C 185.621094 96.886719 183.679688 96.949219 181.867188 97.082031 C 153.648438 98.828125 142.710938 123.808594 147.757812 144.976562 C 136.367188 155.589844 129.246094 170.667969 129.246094 187.496094 C 129.246094 191.964844 129.765625 196.300781 130.667969 200.441406 " fill-opacity="1" fill-rule="evenodd"/></g><path fill="#ffffff" d="M 304 187.496094 C 304 191.898438 303.742188 196.171875 303.289062 200.441406 C 296.816406 258.695312 247.429688 304 187.496094 304 C 144.261719 304 106.53125 280.441406 86.464844 245.425781 C 81.546875 236.945312 88.085938 226.332031 97.855469 226.332031 C 102.386719 226.332031 106.65625 228.726562 108.921875 232.675781 C 124.589844 259.859375 153.90625 278.109375 187.496094 278.109375 C 189.375 278.109375 191.316406 278.046875 193.128906 277.914062 C 221.347656 276.167969 232.285156 251.183594 227.238281 230.019531 C 238.628906 219.40625 245.75 204.324219 245.75 187.496094 C 245.75 183.03125 245.230469 178.695312 244.328125 174.554688 L 291.054688 174.550781 C 298.175781 174.550781 304 180.378906 304 187.496094 " fill-opacity="1" fill-rule="evenodd"/><path fill="#f652a0" d="M 94.304688 226.394531 L 86.796875 228.402344 C 88.804688 227.109375 91.195312 226.332031 93.851562 226.332031 C 93.980469 226.332031 94.175781 226.332031 94.304688 226.394531 " fill-opacity="1" fill-rule="evenodd"/><path fill="#36eee0" d="M 187.496094 129.246094 C 155.332031 129.246094 129.246094 155.332031 129.246094 187.496094 C 129.246094 219.660156 155.332031 245.75 187.496094 245.75 C 219.664062 245.75 245.75 219.660156 245.75 187.496094 C 245.75 155.332031 219.664062 129.246094 187.496094 129.246094 M 187.496094 219.859375 C 169.636719 219.859375 155.136719 205.359375 155.136719 187.496094 C 155.136719 169.632812 169.636719 155.136719 187.496094 155.136719 C 205.359375 155.136719 219.859375 169.632812 219.859375 187.496094 C 219.859375 205.359375 205.359375 219.859375 187.496094 219.859375 Z M 187.496094 219.859375 " fill-opacity="1" fill-rule="evenodd"/><path fill="#f652a0" d="M 181.738281 97.082031 C 153.582031 98.890625 142.710938 123.875 147.757812 144.976562 C 136.367188 155.589844 129.246094 170.667969 129.246094 187.496094 C 129.246094 191.964844 129.765625 196.300781 130.667969 200.441406 L 97.792969 200.441406 C 97.207031 196.234375 96.886719 191.898438 96.886719 187.496094 C 96.886719 139.410156 134.359375 100.054688 181.738281 97.082031 " fill-opacity="1" fill-rule="evenodd"/><path fill="#f652a0" d="M 278.109375 187.496094 C 278.109375 235.585938 240.636719 274.9375 193.257812 277.914062 C 221.414062 276.101562 232.285156 251.121094 227.238281 230.019531 C 238.628906 219.40625 245.75 204.324219 245.75 187.496094 C 245.75 183.03125 245.230469 178.695312 244.328125 174.554688 L 277.203125 174.550781 C 277.789062 178.757812 278.109375 183.097656 278.109375 187.496094 " fill-opacity="1" fill-rule="evenodd"/><g fill="#ffffff" fill-opacity="1"><g transform="translate(6.853951, 350.96559)"><g><path d="M 31.46875 -34.640625 C 38.070312 -34.640625 40.96875 -31.335938 40.15625 -24.734375 L 32.734375 -24.734375 C 32.929688 -26.390625 32.207031 -27.21875 30.5625 -27.21875 L 15.71875 -27.21875 C 14.0625 -27.21875 13.132812 -26.390625 12.9375 -24.734375 L 11.109375 -9.890625 C 10.910156 -8.242188 11.632812 -7.421875 13.28125 -7.421875 L 28.125 -7.421875 C 29.78125 -7.421875 30.707031 -8.242188 30.90625 -9.890625 L 31.375 -13.609375 L 19 -13.609375 L 19.890625 -21.03125 L 39.6875 -21.03125 L 38.328125 -9.890625 C 37.515625 -3.296875 33.8125 0 27.21875 0 L 12.375 0 C 5.769531 0 2.875 -3.296875 3.6875 -9.890625 L 5.515625 -24.734375 C 6.328125 -31.335938 10.03125 -34.640625 16.625 -34.640625 Z M 31.46875 -34.640625 "/></g></g></g><g fill="#ffffff" fill-opacity="1"><g transform="translate(46.443609, 350.96559)"><g><path d="M 10.640625 -4.953125 L 7.171875 0 L -1.390625 0 L 27.296875 -40.96875 L 45.921875 0 L 37.359375 0 L 35.109375 -4.953125 Z M 25.484375 -26.125 L 15.828125 -12.375 L 31.75 -12.375 Z M 25.484375 -26.125 "/></g></g></g><g fill="#ffffff" fill-opacity="1"><g transform="translate(90.981974, 350.96559)"><g><path d="M 12.140625 -18.265625 L 9.890625 0 L 2.46875 0 L 6.921875 -36.171875 L 22.125 -18.859375 L 41.5625 -36.171875 L 37.109375 0 L 29.6875 0 L 31.9375 -18.265625 L 20.828125 -8.359375 Z M 12.140625 -18.265625 "/></g></g></g><g fill="#ffffff" fill-opacity="1"><g transform="translate(130.571632, 350.96559)"><g><path d="M 10.8125 -7.421875 L 38.03125 -7.421875 L 37.109375 0 L 2.46875 0 L 6.734375 -34.640625 L 41.375 -34.640625 L 40.453125 -27.21875 L 13.234375 -27.21875 L 12.46875 -21.03125 L 39.6875 -21.03125 L 38.796875 -13.609375 L 11.578125 -13.609375 Z M 10.8125 -7.421875 "/></g></g></g><g fill="#ffffff" fill-opacity="1"><g transform="translate(170.16129, 350.96559)"><g><path d="M 31.46875 -34.640625 C 38.070312 -34.640625 40.96875 -31.335938 40.15625 -24.734375 L 32.734375 -24.734375 C 32.929688 -26.390625 32.207031 -27.21875 30.5625 -27.21875 L 15.71875 -27.21875 C 14.0625 -27.21875 13.132812 -26.390625 12.9375 -24.734375 L 12.796875 -23.5 C 12.578125 -21.851562 13.289062 -21.03125 14.9375 -21.03125 L 29.796875 -21.03125 C 36.390625 -21.03125 39.28125 -17.734375 38.46875 -11.140625 L 38.328125 -9.890625 C 37.515625 -3.296875 33.8125 0 27.21875 0 L 12.375 0 C 5.769531 0 2.875 -3.296875 3.6875 -9.890625 L 11.109375 -9.890625 C 10.910156 -8.242188 11.632812 -7.421875 13.28125 -7.421875 L 28.125 -7.421875 C 29.78125 -7.421875 30.707031 -8.242188 30.90625 -9.890625 L 31.046875 -11.140625 C 31.265625 -12.785156 30.550781 -13.609375 28.90625 -13.609375 L 14.046875 -13.609375 C 7.453125 -13.609375 4.5625 -16.90625 5.375 -23.5 L 5.515625 -24.734375 C 6.328125 -31.335938 10.03125 -34.640625 16.625 -34.640625 Z M 31.46875 -34.640625 "/></g></g></g><g fill="#ffffff" fill-opacity="1"><g transform="translate(209.750948, 350.96559)"><g><path d="M 40.15625 -24.734375 L 39.859375 -22.265625 L 32.4375 -22.265625 L 32.734375 -24.734375 C 32.929688 -26.390625 32.207031 -27.21875 30.5625 -27.21875 L 15.71875 -27.21875 C 14.0625 -27.21875 13.132812 -26.390625 12.9375 -24.734375 L 11.109375 -9.890625 C 10.910156 -8.242188 11.632812 -7.421875 13.28125 -7.421875 L 28.125 -7.421875 C 29.78125 -7.421875 30.707031 -8.242188 30.90625 -9.890625 L 31.203125 -12.375 L 38.625 -12.375 L 38.328125 -9.890625 C 37.515625 -3.296875 33.8125 0 27.21875 0 L 12.375 0 C 5.769531 0 2.875 -3.296875 3.6875 -9.890625 L 5.515625 -24.734375 C 6.328125 -31.335938 10.03125 -34.640625 16.625 -34.640625 L 31.46875 -34.640625 C 38.070312 -34.640625 40.96875 -31.335938 40.15625 -24.734375 Z M 40.15625 -24.734375 "/></g></g></g><g fill="#ffffff" fill-opacity="1"><g transform="translate(249.340606, 350.96559)"><g><path d="M 30.5625 -27.21875 L 15.71875 -27.21875 C 14.0625 -27.21875 13.132812 -26.390625 12.9375 -24.734375 L 11.109375 -9.890625 C 10.910156 -8.242188 11.632812 -7.421875 13.28125 -7.421875 L 28.125 -7.421875 C 29.78125 -7.421875 30.707031 -8.242188 30.90625 -9.890625 L 32.734375 -24.734375 C 32.929688 -26.390625 32.207031 -27.21875 30.5625 -27.21875 Z M 16.625 -34.640625 L 31.46875 -34.640625 C 38.070312 -34.640625 40.96875 -31.335938 40.15625 -24.734375 L 38.328125 -9.890625 C 37.515625 -3.296875 33.8125 0 27.21875 0 L 12.375 0 C 5.769531 0 2.875 -3.296875 3.6875 -9.890625 L 5.515625 -24.734375 C 6.328125 -31.335938 10.03125 -34.640625 16.625 -34.640625 Z M 16.625 -34.640625 "/></g></g></g><g fill="#ffffff" fill-opacity="1"><g transform="translate(288.930264, 350.96559)"><g><path d="M 6.734375 -34.640625 L 31.46875 -34.640625 C 38.070312 -34.640625 40.96875 -31.335938 40.15625 -24.734375 L 39.53125 -19.796875 C 38.726562 -13.191406 35.023438 -9.890625 28.421875 -9.890625 L 11.109375 -9.890625 L 9.890625 0 L 2.46875 0 Z M 13.234375 -27.21875 L 12.03125 -17.3125 L 29.34375 -17.3125 C 30.988281 -17.3125 31.910156 -18.140625 32.109375 -19.796875 L 32.734375 -24.734375 C 32.929688 -26.390625 32.207031 -27.21875 30.5625 -27.21875 Z M 13.234375 -27.21875 "/></g></g></g><g fill="#ffffff" fill-opacity="1"><g transform="translate(328.519921, 350.96559)"><g><path d="M 10.8125 -7.421875 L 38.03125 -7.421875 L 37.109375 0 L 2.46875 0 L 6.734375 -34.640625 L 41.375 -34.640625 L 40.453125 -27.21875 L 13.234375 -27.21875 L 12.46875 -21.03125 L 39.6875 -21.03125 L 38.796875 -13.609375 L 11.578125 -13.609375 Z M 10.8125 -7.421875 "/></g></g></g></svg>